# xmcd
#
# Track frame offsets:
#	150
#	15050
#	30947
#	51008
#	69970
#	87470
#	102682
#	119716
#	133752
#	151452
#	168927
#	188996
#	205775
#	221949
#	237517
#
# Disc length: 3371 seconds
#
# Revision: 1
# Processed by: cddbd v1.5.2PL0 Copyright (c) Steve Scherf et al.
# Submitted via: audiograbber 1.83.01
#
DISCID=d10d290f
DTITLE=Phil Vassar - Greatest Hits: Volume 1
DYEAR=2006
DGENRE=Country
TTITLE0=Bye Bye
TTITLE1=In A Real Love
TTITLE2=Carlene
TTITLE3=I'm Alright
TTITLE4=The Last Day Of My Life
TTITLE5=My Next Thirty Years
TTITLE6=Little Red Rodeo
TTITLE7=American Child
TTITLE8=Twenty One
TTITLE9=Just Another Day In Paradise
TTITLE10=For A Little While
TTITLE11=The Woman In My Life
TTITLE12=Six-Pack Summer
TTITLE13=That's When I Love You
TTITLE14=I'll Take That As A Yes (The H
EXTD=
EXTT0=
EXTT1=
EXTT2=
EXTT3=
EXTT4=
EXTT5=
EXTT6=
EXTT7=
EXTT8=
EXTT9=
EXTT10=
EXTT11=
EXTT12=
EXTT13=
EXTT14=
PLAYORDER=
